<?xml version="1.0" encoding="UTF-8" standalone="no" ?>
<!DOCTYPE svg PUBLIC "-//W3C//DTD SVG 1.1//EN" "http://www.w3.org/Graphics/SVG/1.1/DTD/svg11.dtd">
<svg xmlns="http://www.w3.org/2000/svg" xmlns:xlink="http://www.w3.org/1999/xlink" version="1.1" width="120" height="120" viewBox="0 0 120 120" xml:space="preserve">
<desc>Created with Fabric.js 3.6.6</desc>
<defs>
</defs>
<g transform="matrix(1 0 0 1 60.17 59.56)"  >
<g style=""   >
		<g transform="matrix(1 0 0 1 -16.18 -25.57)"  >
<line style="stroke: rgb(0,0,0); stroke-width: 2; stroke-dasharray: none; stroke-linecap: butt; stroke-dashoffset: 0; stroke-linejoin: miter; stroke-miterlimit: 4; fill: rgb(0,0,0); fill-rule: nonzero; opacity: 1;"  x1="0" y1="0" x2="0" y2="0" />
</g>
		<g transform="matrix(1 0 0 1 -47.18 -53.57)"  >
<line style="stroke: rgb(0,0,0); stroke-width: 2; stroke-dasharray: none; stroke-linecap: butt; stroke-dashoffset: 0; stroke-linejoin: miter; stroke-miterlimit: 4; fill: rgb(0,0,0); fill-rule: nonzero; opacity: 1;"  x1="0" y1="0" x2="0" y2="0" />
</g>
		<g transform="matrix(1 0 0 1 -5.2 39.71)"  >
<path style="stroke: none; stroke-width: 1; stroke-dasharray: none; stroke-linecap: butt; stroke-dashoffset: 0; stroke-linejoin: miter; stroke-miterlimit: 4; fill: rgb(0,0,0); fill-rule: nonzero; opacity: 1;"  transform=" translate(-296.48, -441.29)" d="M 299.32 438.87 c -1.48 -1.94 -4.21 -2.55 -6.43 -1.67 c -0.75 0.3 -0.2 1.41 0.55 1.13 c 1.7 -0.63 3.79 -0.05 4.86 1.42 c 1.09 1.5 0.93 3.56 -0.08 5.05 c -0.47 0.69 0.53 1.34 1.05 0.72 C 300.82 443.67 300.77 440.78 299.32 438.87 z" stroke-linecap="round" />
</g>
		<g transform="matrix(1 0 0 1 -0.89 37.2)"  >
<path style="stroke: none; stroke-width: 1; stroke-dasharray: none; stroke-linecap: butt; stroke-dashoffset: 0; stroke-linejoin: miter; stroke-miterlimit: 4; fill: rgb(0,0,0); fill-rule: nonzero; opacity: 1;"  transform=" translate(-300.79, -438.78)" d="M 303.62 436.62 c -1.29 -2.03 -3.74 -3.16 -6.12 -2.84 c -0.8 0.11 -0.55 1.28 0.22 1.22 c 1.87 -0.13 3.8 0.75 4.79 2.37 c 1.03 1.68 0.87 3.82 -0.14 5.47 c -0.43 0.7 0.56 1.38 1.05 0.72 C 304.89 441.58 304.94 438.69 303.62 436.62 z" stroke-linecap="round" />
</g>
		<g transform="matrix(1 0 0 1 0 0)"  >
<path style="stroke: none; stroke-width: 1; stroke-dasharray: none; stroke-linecap: butt; stroke-dashoffset: 0; stroke-linejoin: miter; stroke-miterlimit: 4; fill: rgb(0,0,0); fill-rule: nonzero; opacity: 1;"  transform=" translate(-301.68, -401.57)" d="M 355.36 378.21 c -0.41 -1.61 -2.2 -1.54 -3.54 -1.55 c -1.71 -0.02 -3.42 0.13 -5.1 0.45 c -4.35 0.83 -8.37 2.73 -11.88 5.35 c -0.71 -1.95 -1.85 -3.67 -3.15 -5.28 c -1.48 -1.84 -3.06 -3.61 -4.69 -5.31 c -3.05 -3.18 -6.45 -5.91 -10.39 -7.9 c -0.14 -0.07 -0.28 -0.14 -0.41 -0.2 c 0.58 -1.35 0.99 -2.8 1.39 -4.19 c 0.44 -1.54 0.81 -3.11 1.07 -4.69 c 0.26 -1.59 0.39 -3.21 0.36 -4.82 c -0.03 -1.63 -0.14 -3.33 -0.79 -4.84 c -0.56 -1.31 -1.61 -2.48 -3.15 -2.06 c -0.15 0.04 -0.3 0.09 -0.45 0.14 c -2 0.45 -3.99 1.16 -5.89 1.9 c -2.18 0.85 -4.3 1.84 -6.35 2.97 c -4.05 2.22 -7.84 4.95 -11.21 8.11 c -1.85 1.74 -3.79 3.62 -5.23 5.72 c -0.05 0.07 -0.08 0.15 -0.09 0.22 c -1.84 0.63 -3.65 1.35 -5.43 2.14 c -1.51 0.38 -2.98 1.02 -4.32 1.76 c -4.68 2.58 -8.5 6.54 -11.23 11.1 c -2.23 3.71 -3.63 7.74 -4.59 11.91 c -0.08 0.04 -0.15 0.08 -0.22 0.13 c -0.06 0.04 -0.11 0.09 -0.15 0.15 c -0.18 0.13 -0.29 0.34 -0.22 0.62 c 0.06 0.29 0.14 0.58 0.22 0.86 c -0.2 0.99 -0.38 1.98 -0.54 2.98 c -1.07 6.67 -1.86 13.4 -2.73 20.1 c -0.22 1.71 -0.45 3.42 -0.67 5.13 c 0 0.02 0 0.04 0 0.06 c -2.6 1.92 -5.02 4.05 -6.61 6.9 c -1.36 2.44 -2.1 5.49 -0.92 8.15 c 0.3 0.69 0.76 1.3 1.31 1.8 c -0.36 2.05 0.69 4.19 2.09 5.66 c 0.68 0.71 1.51 1.31 2.45 1.64 c 0.57 0.2 1.3 0.35 1.99 0.32 c -0.44 2.42 1.05 4.83 3.32 5.95 c 1.44 0.72 2.99 0.93 4.56 0.86 c -2.07 1.24 -3.75 3.15 -3.36 5.76 c 0.53 3.46 4.67 4.35 7.53 3.6 c 2.06 -0.54 3.9 -1.64 5.9 -2.34 c 1.99 -0.7 4.14 -1.02 6.25 -1.02 c 9.14 0.62 18.5 0.99 27.42 -1.37 c 4.35 -1.15 8.53 -2.93 12.22 -5.54 c 1.94 -1.37 3.71 -2.95 5.42 -4.6 c 1.56 -1.51 3.07 -3.08 4.42 -4.79 c 2.86 -3.64 5.19 -8.42 4.52 -13.17 c -0.1 -0.72 -1.33 -0.69 -1.3 0.06 c 0.14 4.19 -1.21 7.97 -3.65 11.36 c -2.53 3.52 -5.84 6.69 -9.27 9.32 c -7.13 5.46 -16.23 7.4 -25.04 7.76 c -4.69 0.19 -9.38 -0.04 -14.06 -0.27 c -0.06 -0.02 -0.13 -0.04 -0.21 -0.04 c -0.49 -0.03 -0.98 -0.04 -1.47 -0.04 c -0.05 0 -0.1 0 -0.15 -0.01 c -0.07 0 -0.13 0 -0.19 0.02 c -1.29 0.04 -2.58 0.21 -3.84 0.53 c -1.75 0.45 -3.36 1.21 -5.01 1.92 c -1.49 0.64 -3.07 1.23 -4.71 1.03 c -1.23 -0.15 -2.56 -0.74 -3.12 -1.92 c -0.7 -1.49 0.14 -3.21 1.28 -4.21 c 1.27 -1.12 2.96 -1.69 4.56 -2.17 c 3.62 -1.08 7.39 -1.57 11.15 -1.82 c 2.01 -0.13 4.02 -0.19 6.02 -0.23 c 1.73 -0.04 3.48 -0.05 5.2 -0.34 c 1.55 -0.26 3.26 -0.76 4.49 -1.8 c 1.04 -0.88 1.55 -2.34 0.52 -3.44 c -1.02 -1.09 -2.92 -1.28 -4.32 -1.24 c -1.73 0.05 -3.4 0.45 -5.06 0.91 c -3.54 0.98 -6.97 2.3 -10.42 3.54 c -2.01 0.72 -4.03 1.42 -6.08 2.01 c -1.96 0.56 -4.02 1.14 -6.07 1.16 c -1.75 0.02 -3.63 -0.42 -4.91 -1.68 c -0.99 -0.97 -1.45 -2.37 -1.16 -3.69 c 0.5 0.37 1.08 0.64 1.75 0.76 c 1.96 0.35 3.91 -0.66 5.22 -2.06 c 1.48 -1.59 2.49 -3.61 3.47 -5.52 c 1 -1.93 1.9 -3.91 2.75 -5.92 c 1.7 -4.04 3.16 -8.18 4.7 -12.29 c 0.41 3.18 2.26 6.21 4.82 8.07 c 3.2 2.32 7.58 2.95 11.34 1.72 c 0.08 -0.02 0.14 -0.06 0.2 -0.1 c 0.28 -0.03 0.55 -0.22 0.6 -0.58 c 0.32 -2.45 -0.25 -4.94 -1.45 -7.09 c 0.52 0.27 1.04 0.53 1.57 0.76 c 0.96 0.42 1.94 0.76 2.95 1.04 c 1.01 0.28 2.2 0.65 3.25 0.61 c 0.51 -0.02 0.86 -0.59 0.7 -0.98 c -0.09 -2.51 -0.73 -5.03 -1.56 -7.38 c -0.72 -2.04 -1.58 -4.14 -3.1 -5.71 c 1.42 1 2.97 1.81 4.55 2.5 c 1.16 0.51 2.36 0.94 3.56 1.35 c 1.17 0.39 2.36 0.87 3.57 1.1 c 0.45 0.08 0.7 -0.25 0.71 -0.62 c 0.9 -3.56 -0.57 -7.59 -2.64 -10.47 c -0.21 -0.29 -0.43 -0.57 -0.66 -0.84 c 0.99 0.65 2.03 1.22 3.12 1.71 c 1.09 0.5 2.22 0.92 3.37 1.27 c 1.12 0.35 2.29 0.71 3.47 0.82 c 0.2 0.02 0.36 -0.05 0.48 -0.16 c 0.21 -0.12 0.37 -0.35 0.38 -0.62 c 1.39 -3.83 2.7 -8.01 1.02 -11.97 c -1.44 -3.39 -4.69 -5.8 -8.09 -6.99 c -3.55 -1.25 -7.21 -1.08 -10.54 0.47 c -0.09 0.02 -0.16 0.06 -0.22 0.11 c -0.38 0.18 -0.75 0.38 -1.11 0.6 c -1.51 0.91 -2.93 1.98 -4.27 3.16 c -0.49 -0.84 -1.38 -1.51 -2.16 -2.01 c -0.86 -0.55 -1.79 -0.95 -2.76 -1.22 c 0.77 -1.27 1.52 -2.56 2.23 -3.87 c 0.03 -0.01 0.07 -0.02 0.1 -0.03 c 0.24 -0.07 0.41 -0.26 0.47 -0.47 c 0.1 -0.1 0.18 -0.24 0.2 -0.42 c 0.03 -0.24 0.05 -0.48 0.07 -0.72 c 2.11 -4.43 3.19 -9.62 0.32 -14 c -1.28 -1.94 -3.24 -3.26 -5.53 -3.61 c 2.23 -0.83 4.5 -1.54 6.85 -2.02 c 3.83 -0.78 7.75 -0.98 11.64 -0.61 c 3.9 0.37 7.74 1.33 11.34 2.9 c 0.13 0.05 0.25 0.11 0.37 0.17 c 0.14 0.19 0.37 0.29 0.6 0.28 c 3.39 1.62 6.44 3.82 9.16 6.44 c 1.85 1.79 3.57 3.72 5.24 5.67 c 1.64 1.92 3.25 3.97 4 6.41 c -1.41 1.15 -2.73 2.42 -3.95 3.78 c -4.82 5.39 -8.68 12.43 -9.27 19.73 c -0.07 0.86 1.24 0.97 1.33 0.12 c 0.66 -5.93 3.25 -11.47 6.78 -16.23 c 3.52 -4.75 8.16 -8.71 13.69 -10.9 c 2.91 -1.15 6.05 -1.81 9.18 -1.81 c 0.2 0 0.42 -0.01 0.64 -0.02 c -1.55 0.47 -2.99 1.22 -4.36 2.1 c -2.77 1.78 -5.41 3.85 -7.92 5.97 c -2.43 2.06 -4.74 4.27 -6.81 6.68 c -2.09 2.43 -4.04 5.1 -5.3 8.06 c -1.42 3.31 -1.86 7.23 -0.19 10.54 c 0.36 0.72 1.45 0.19 1.12 -0.54 c -2.52 -5.71 0.9 -11.58 4.42 -15.99 c 3.62 -4.54 8.12 -8.3 12.79 -11.73 c 1.31 -0.96 2.63 -1.92 4.07 -2.69 c -0.66 0.66 -1.3 1.36 -1.9 2.07 c -1.74 2.05 -3.24 4.28 -4.66 6.55 c -0.74 1.17 -1.46 2.37 -2.33 3.45 c -0.86 1.06 -1.93 1.91 -2.99 2.76 c -2.03 1.64 -3.83 3.52 -5.27 5.71 c -1.54 2.34 -3.02 5.18 -2.03 8.01 c 0.06 0.16 0.17 0.26 0.3 0.31 c 0.25 0.43 0.6 0.8 1.09 1.05 c 1.22 0.63 2.67 0.22 3.83 -0.35 c 2.92 -1.44 5.35 -3.82 7.52 -6.2 c 4.26 -4.66 7.62 -10.11 9.85 -16.02 c 0.58 -1.53 1.09 -3.1 1.51 -4.68 C 355.2 381.6 355.75 379.74 355.36 378.21 z M 265.07 379.66 c 2.14 -4.07 5.11 -7.77 8.82 -10.51 c -0.91 3.26 0.07 6.89 2.05 9.63 c -0.81 -0.36 -1.65 -0.66 -2.51 -0.89 c -0.98 -0.26 -1.99 -0.46 -3 -0.57 c -1.14 -0.13 -2.4 -0.24 -3.52 0.06 c -0.01 0 -0.01 0.01 -0.02 0.01 c -0.27 0.03 -0.52 0.22 -0.55 0.58 c -0.36 3.98 1.44 8.15 4.22 11.05 c -1.44 -0.5 -2.98 -0.66 -4.5 -0.65 c -0.98 0.01 -1.97 0.08 -2.95 0.17 c -0.44 0.04 -0.89 0.07 -1.33 0.13 C 262.54 385.56 263.56 382.52 265.07 379.66 z M 279.4 382.81 c 0.83 0.83 1.54 1.78 2.08 2.83 c 0.41 0.79 0.72 1.63 0.91 2.49 c 0.17 0.79 0.19 1.55 0.2 2.34 c -3.45 1.16 -7.29 0.86 -10.14 -1.59 c -2.86 -2.45 -4.8 -6.37 -4.8 -10.17 c 2.51 -0.23 5.18 0.25 7.55 1.29 c -1.25 0.13 -2.44 0.83 -3.08 1.95 c -0.98 1.74 -0.63 3.92 0.93 5.19 c 1.51 1.24 3.73 1.21 5.19 -0.09 c 0.98 -0.87 1.36 -1.93 1.34 -3.03 C 279.58 383.62 279.52 383.21 279.4 382.81 z M 288.76 406.1 c -1.25 -0.19 -2.51 -0.2 -3.77 -0.11 c -1.25 0.08 -2.59 0.21 -3.8 0.55 c -0.11 -0.05 -0.23 -0.06 -0.35 -0.06 c 1.96 -3.69 4.31 -7.17 7.07 -10.31 c 0.08 4.4 1.97 8.53 5.22 11.47 C 291.81 406.83 290.29 406.34 288.76 406.1 z M 283.06 415.23 c -2.07 -0.22 -4.39 0 -6.41 0.57 c 1.11 -2.83 2.3 -5.62 3.68 -8.33 c 0.89 2.96 2.35 5.69 4.32 8.03 C 284.13 415.38 283.6 415.29 283.06 415.23 z M 286.51 395.62 C 286.51 395.62 286.51 395.62 286.51 395.62 c -0.73 -1.24 -2.12 -2.16 -3.52 -2.54 c 0.33 -0.52 0.67 -1.04 1 -1.57 c 0.93 -0.12 1.87 0.49 2.59 1.01 c 0.59 0.43 0.98 0.93 1.38 1.47 C 287.46 394.53 286.98 395.08 286.51 395.62 z M 274.73 391.84 c 2.26 0.83 4.77 0.87 7.16 0.3 c -1.33 2.07 -2.71 4.1 -4.14 6.1 C 277.37 395.91 276.31 393.61 274.73 391.84 z M 261.43 390.22 c 1.47 -0.33 3.01 -0.42 4.5 -0.43 c 0.71 -0.01 1.42 0.02 2.12 0.11 c -0.62 0.34 -1.16 0.85 -1.52 1.48 c -0.96 1.68 -0.57 3.91 0.96 5.12 c 1.52 1.2 3.78 1.04 5.09 -0.38 c 0.84 -0.91 1.12 -2.12 0.88 -3.21 c 0 -0.15 -0.01 -0.3 -0.03 -0.45 c 0.5 0.52 0.95 1.09 1.33 1.69 c 0.93 1.49 1.36 3.1 1.71 4.78 c -3.03 1.32 -6.56 0.99 -9.39 -0.73 c -2.65 -1.61 -4.79 -4.35 -5.79 -7.33 C 261.34 390.67 261.39 390.45 261.43 390.22 z M 260.13 398.01 c 0.21 -1.56 0.44 -3.12 0.71 -4.67 c 1.26 2.53 3.25 4.75 5.64 6.15 c 2.81 1.65 6.33 2.18 9.45 1.2 c -0.39 0.51 -0.78 1.01 -1.17 1.51 c -3.82 4.82 -8.14 9.25 -13.09 12.92 c -1.38 1.02 -2.84 2 -4.28 3.01 C 258.32 411.42 259.21 404.71 260.13 398.01 z M 255.59 440.34 c 0.15 0.62 0.38 1.23 0.69 1.78 c -0.54 0.04 -1.05 0.05 -1.65 -0.17 c -0.74 -0.28 -1.38 -0.77 -1.91 -1.35 c -0.97 -1.06 -1.6 -2.33 -1.72 -3.72 c 0.97 0.48 2.08 0.69 3.16 0.52 c 0.57 -0.09 1.09 -0.3 1.54 -0.6 C 255.34 437.92 255.31 439.17 255.59 440.34 z M 268.58 432.5 c -0.04 0.1 -0.06 0.19 -0.06 0.28 c -1.1 2.5 -2.33 4.95 -3.82 7.2 c -1.04 1.56 -2.55 3.14 -4.57 3.1 c -2.12 -0.04 -3.21 -2.21 -3.31 -4.1 c -0.11 -1.86 1.05 -4.06 3.16 -4.02 c 1.52 0.03 3.05 2.11 1.54 3.25 c -0.5 0.38 -1.19 0.52 -1.74 0.15 c -0.76 -0.5 -1.56 0.66 -0.8 1.16 c 1.34 0.88 3.16 0.38 4.04 -0.91 c 1 -1.46 0.33 -3.38 -1.02 -4.36 c -1.36 -0.98 -3.15 -0.8 -4.48 0.12 c 0.31 -0.95 0.34 -2 0.03 -2.97 c -0.4 -1.28 -1.42 -2.28 -2.75 -2.54 c -1.19 -0.24 -2.42 0.2 -3.06 1.25 c -0.61 0.99 -0.58 2.22 0.14 3.14 c 0.57 0.73 1.65 -0.21 1.08 -0.93 c -0.74 -0.95 0.32 -2.14 1.35 -2.05 c 1.47 0.13 2.14 1.64 1.99 2.96 c -0.14 1.23 -0.88 2.41 -2.13 2.71 c -1.05 0.25 -2.2 -0.06 -3.07 -0.67 c -2.39 -1.65 -2.05 -5.06 -1.04 -7.4 c 1.06 -2.45 2.96 -4.44 4.98 -6.13 c 0.17 -0.14 0.34 -0.28 0.52 -0.42 c 1.48 -1.02 3.49 -0.44 4.62 0.88 c 0.59 0.69 0.95 1.52 1.16 2.39 c 0.18 0.77 0.33 1.6 0.83 2.24 c 1.14 1.45 3.06 0.53 4.56 1.14 C 268.52 428.71 269.33 430.71 268.58 432.5 z M 270.58 427.83 c -0.14 0.34 -0.27 0.69 -0.41 1.03 c -0.08 0.19 -0.16 0.39 -0.24 0.58 c -0.31 -0.81 -0.84 -1.54 -1.55 -2.08 c -0.77 -0.59 -1.74 -0.95 -2.71 -1.02 c -0.95 -0.07 -2.14 0.38 -2.63 -0.7 c -0.4 -0.9 -0.46 -1.92 -0.89 -2.83 c -0.44 -0.93 -1.1 -1.77 -1.93 -2.37 c -0.68 -0.49 -1.48 -0.79 -2.29 -0.89 c 0.42 -0.3 0.84 -0.59 1.26 -0.88 c 1.24 -0.13 2.5 0.39 3.29 1.38 c 0.9 1.14 0.71 2.86 2 3.73 c 1.19 0.82 2.58 0.22 3.89 0.5 C 270.02 424.61 270.88 426.24 270.58 427.83 z M 274.57 417.26 c -1.01 2.66 -1.98 5.33 -2.99 7.99 c -0.28 -0.59 -0.7 -1.12 -1.24 -1.53 c -0.67 -0.51 -1.51 -0.81 -2.35 -0.85 c -0.78 -0.04 -1.64 0.18 -2.4 -0.05 c -0.88 -0.27 -1.02 -1.36 -1.28 -2.12 c -0.27 -0.77 -0.68 -1.45 -1.29 -2 c -0.63 -0.58 -1.38 -0.98 -2.19 -1.18 c 0.25 -0.18 0.5 -0.35 0.75 -0.53 c 2.38 -1.69 4.63 -3.55 6.74 -5.56 c 4.3 -4.09 8.07 -8.72 11.47 -13.58 c 0.84 -1.19 1.65 -2.4 2.45 -3.62 c 0.66 0.16 1.29 0.43 1.84 0.82 c 0.66 0.47 1.06 1.05 1.48 1.71 C 280.62 402.85 277.35 409.95 274.57 417.26 z M 291.22 427.18 c -1.85 0.34 -3.62 0.66 -5.51 0.35 c -1.57 -0.26 -3.08 -0.9 -4.38 -1.81 c -2.84 -2 -4.27 -5.1 -4.49 -8.47 c 1.94 -0.26 3.78 -0.74 5.76 -0.59 c 0.19 0.01 0.37 0.03 0.56 0.06 c -1.33 0.4 -2.53 1.31 -3.1 2.55 c -0.86 1.88 -0.11 4.26 1.67 5.31 c 1.79 1.06 4.05 0.79 5.5 -0.72 c 1.15 -1.19 1.56 -2.95 1.13 -4.5 C 290.31 421.43 291.4 424.33 291.22 427.18 z M 296.69 415.35 c 0.72 2.03 1.1 4.1 1.44 6.21 c -0.66 -0.12 -1.32 -0.2 -1.96 -0.37 c -0.97 -0.26 -1.92 -0.59 -2.85 -0.98 c -1.8 -0.76 -3.47 -1.79 -4.99 -3.02 c -2.96 -2.41 -5.21 -5.68 -6.45 -9.29 c 1 -0.14 1.98 -0.35 2.99 -0.44 c 1.13 -0.1 2.27 -0.09 3.4 0.05 c 0.93 0.12 1.87 0.35 2.75 0.71 c -1.67 0.1 -3.22 1.21 -3.83 2.81 c -0.72 1.88 0.18 4.15 1.9 5.16 c 1.76 1.03 4.08 0.55 5.4 -0.97 c 0.72 -0.83 1.02 -1.85 0.96 -2.86 C 295.95 413.34 296.34 414.37 296.69 415.35 z M 305.12 406.69 c 0.77 1.86 0.95 3.69 0.88 5.64 c -0.84 -0.28 -1.71 -0.49 -2.54 -0.77 c -1.12 -0.38 -2.24 -0.78 -3.33 -1.25 c -1.94 -0.83 -3.8 -1.85 -5.45 -3.17 c -1.64 -1.31 -3 -2.94 -3.92 -4.84 c -0.88 -1.82 -1.27 -3.74 -1.46 -5.71 c 3.28 0.41 6.52 1.23 9.35 2.88 c -1.63 0.13 -3.12 1.23 -3.74 2.8 c -0.79 2.01 0.14 4.42 2.08 5.36 c 2.01 0.97 4.39 0.17 5.45 -1.78 c 0.48 -0.88 0.64 -1.84 0.52 -2.76 C 303.85 404.18 304.58 405.4 305.12 406.69 z M 311.54 389.85 c 1.5 1.23 2.75 2.87 3.32 4.74 c 0.68 2.22 0.32 4.6 -0.31 6.79 c -0.1 0.36 -0.21 0.72 -0.33 1.07 c -0.14 -0.46 -0.28 -0.91 -0.41 -1.36 c -0.35 -1.26 -0.73 -2.52 -1.15 -3.76 c -0.77 -2.25 -1.65 -4.53 -3.21 -6.36 c -1.95 -2.29 -4.63 -3.74 -7.51 -4.3 C 305.37 386.41 308.91 387.69 311.54 389.85 z M 297.9 387.83 c 3.21 -0.25 6.46 0.6 8.94 2.58 c -0.19 -0.07 -0.35 -0.06 -0.48 0 c -0.32 -0.02 -0.64 -0.01 -0.94 0.04 c -2.01 0.34 -3.94 2.01 -4.04 4.14 c -0.1 2.09 1.41 3.95 3.47 4.28 c 2.03 0.32 4 -0.9 4.68 -2.82 c 0.25 -0.72 0.31 -1.45 0.2 -2.15 c 0.78 1.46 1.33 3.09 1.83 4.63 c 0.36 1.1 0.68 2.22 0.98 3.33 c 0.2 0.76 0.35 1.58 0.57 2.36 c -0.72 -0.19 -1.45 -0.36 -2.16 -0.57 c -1.01 -0.31 -2 -0.67 -2.96 -1.08 c -2 -0.86 -3.92 -2.01 -5.53 -3.49 C 299.34 396.24 297.4 392.07 297.9 387.83 z M 293.57 390.64 c 0.92 -0.76 1.89 -1.49 2.91 -2.11 c -0.32 3.65 1.16 7.31 3.53 10.1 c -1.46 -0.93 -3.06 -1.66 -4.7 -2.2 c -2.01 -0.66 -4.14 -1.08 -6.26 -1.21 c -0.05 -0.05 -0.11 -0.09 -0.18 -0.11 C 290.35 393.52 291.91 392.01 293.57 390.64 z M 288.54 389.48 c 0.83 0.54 1.42 1.15 1.97 1.91 c -0.54 0.51 -1.07 1.03 -1.58 1.57 c -0.46 -0.67 -1.13 -1.22 -1.77 -1.65 c -0.71 -0.47 -1.53 -0.93 -2.39 -1.06 c 0.39 -0.63 0.78 -1.27 1.17 -1.9 C 286.86 388.6 287.74 388.96 288.54 389.48 z M 285.16 386.87 c -0.41 0.68 -0.82 1.35 -1.23 2.02 c -0.15 -1.28 -0.59 -2.57 -1.1 -3.66 c -0.42 -0.88 -0.94 -1.7 -1.55 -2.45 c 0.44 0.15 0.89 0.28 1.35 0.38 c 1.04 0.23 2.09 0.34 3.15 0.36 c 0.43 0.01 0.9 0.02 1.37 0.02 C 286.49 384.7 285.8 385.81 285.16 386.87 z M 288.31 381.38 c -0.11 0.22 -0.22 0.44 -0.33 0.65 c -0.62 0.04 -1.25 0.12 -1.86 0.12 c -0.93 0 -1.86 -0.07 -2.78 -0.24 c -1.94 -0.35 -3.77 -1.21 -5.16 -2.62 c -2.65 -2.7 -3.99 -6.75 -2.81 -10.41 c 0.73 -0.1 1.45 0.04 2.21 0.17 c 0.97 0.17 1.93 0.39 2.86 0.71 c 1 0.35 1.95 0.83 2.83 1.44 c -1.57 -0.24 -3.25 0.43 -4.23 1.7 c -1.28 1.67 -1.21 4.19 0.21 5.74 c 1.49 1.62 3.91 1.95 5.73 0.7 c 1.46 -1 2.1 -2.86 1.69 -4.49 C 287.82 376.8 288.38 379.06 288.31 381.38 z M 289.86 370.5 c 0.93 2.73 0.58 5.46 -0.34 8.07 c -0.51 -2.79 -1.92 -5.41 -4.03 -7.34 c -1.39 -1.27 -3.04 -2.25 -4.83 -2.84 c -1.01 -0.33 -2.05 -0.54 -3.09 -0.72 c -0.38 -0.06 -0.76 -0.13 -1.15 -0.16 c 0.44 -0.25 0.9 -0.5 1.37 -0.72 c 0.12 0.02 0.24 0.01 0.38 -0.05 c 0.7 -0.31 1.4 -0.62 2.11 -0.93 c 1.44 -0.42 2.93 -0.59 4.41 -0.28 C 287.25 366.06 289.04 368.1 289.86 370.5 z M 292.78 360.45 c -1.6 0.25 -3.17 0.62 -4.71 1.06 c 1.08 -1.21 2.14 -2.44 3.32 -3.58 c 1.63 -1.57 3.36 -3.04 5.17 -4.4 c 3.6 -2.71 7.55 -4.95 11.71 -6.68 c 0.34 -0.14 0.68 -0.27 1.02 -0.41 c -2.01 1.48 -3.87 3.21 -5.44 5.14 c -1.97 2.42 -3.48 5.25 -3.97 8.35 C 297.49 359.91 295.12 360.08 292.78 360.45 z M 301.19 359.98 c 1 -5.08 4.65 -9.23 8.69 -12.27 c 1.16 -0.88 2.39 -1.67 3.67 -2.36 c 0.58 -0.31 1.32 -0.82 1.98 -0.91 c 0.01 0 0.03 0 0.04 0 c -0.49 0.18 -0.85 0.58 -1.22 0.93 c -0.49 0.48 -0.97 0.97 -1.43 1.47 c -1.72 1.85 -3.28 3.84 -4.64 5.97 c -1.48 2.3 -2.96 4.85 -3.81 7.47 C 303.38 360.13 302.29 360.04 301.19 359.98 z M 314.85 363.13 c -0.91 -0.4 -1.85 -0.76 -2.79 -1.09 c 1.33 -2.37 2.43 -4.88 3.34 -7.44 c 0.89 -2.52 1.83 -5.27 1.85 -7.97 c 0.31 1.14 0.35 2.39 0.36 3.54 c 0.01 1.41 -0.11 2.82 -0.32 4.22 c -0.25 1.63 -0.63 3.23 -1.09 4.8 C 315.81 360.52 315.29 361.81 314.85 363.13 z" stroke-linecap="round" />
</g>
</g>
</g>
</svg>
